M48
;DRILL file {KiCad 4.0.2+dfsg1-stable} date Tue 17 Jul 2018 08:12:57 PM MDT
;FORMAT={-:-/ absolute / metric / decimal}
FMAT,2
METRIC,TZ
T1C0.300
T2C0.400
T3C0.500
T4C0.700
T5C1.001
T6C1.016
T7C3.000
%
G90
G05
M71
T1
X117.475Y-114.935
X121.285Y-62.23
X123.19Y-62.23
X146.685Y-94.615
X147.955Y-93.98
X149.225Y-93.345
X149.225Y-97.155
X150.495Y-92.71
X151.13Y-97.155
X159.385Y-92.71
X160.02Y-93.98
X160.655Y-97.79
X161.29Y-85.725
X161.29Y-87.63
X161.29Y-95.885
X161.925Y-91.44
X163.83Y-86.36
X164.434Y-87.63
X164.465Y-99.06
X169.545Y-88.9
X169.862Y-86.677
X170.815Y-89.535
X171.45Y-90.805
X172.085Y-92.075
T2
X163.195Y-85.09
T3
X107.95Y-112.395
X149.225Y-88.9
X184.15Y-88.9
X184.15Y-120.65
T5
X104.14Y-54.61
X104.14Y-57.15
X104.14Y-60.96
X104.14Y-63.5
X104.14Y-67.31
X104.14Y-69.85
X104.14Y-73.66
X104.14Y-76.2
X104.14Y-80.01
X104.14Y-82.55
X104.14Y-86.36
X104.14Y-88.9
X104.14Y-92.71
X104.14Y-95.25
X104.14Y-99.06
X104.14Y-101.6
X139.7Y-95.885
X139.7Y-98.425
T6
X129.54Y-112.395
X132.08Y-112.395
X134.62Y-112.395
X137.16Y-112.395
X139.7Y-112.395
X142.24Y-112.395
X144.78Y-112.395
X147.32Y-112.395
X165.1Y-112.395
X167.64Y-112.395
X170.18Y-112.395
X172.72Y-112.395
X175.26Y-112.395
X177.8Y-112.395
X180.34Y-112.395
X182.88Y-112.395
T7
X107.95Y-120.65
X113.03Y-57.15
X184.15Y-101.6
T4
X119.38Y-56.495G85X119.38Y-53.995
G05
X126.68Y-56.495G85X126.68Y-53.995
G05
T0
M30
